<svg xmlns="http://www.w3.org/2000/svg" width="27" height="24" fill="none"><path fill="#AEAEAE" d="M5.057 8.042h-.542c-1.021 0-1.532 0-1.85.317-.316.318-.316.828-.316 1.85v9.208c0 1.021 0 1.532.317 1.85.317.317.828.317 1.85.317h.54c1.022 0 1.533 0 1.85-.318.318-.317.318-.828.318-1.849v-9.208c0-1.022 0-1.532-.318-1.85-.317-.317-.828-.317-1.85-.317M7.224 3.604a2.437 2.437 0 1 1-4.875 0 2.437 2.437 0 0 1 4.875 0M13.285 8.042h-.895c-1.021 0-1.532 0-1.85.317-.316.318-.316.828-.316 1.85v9.208c0 1.021 0 1.532.317 1.85.317.317.828.317 1.85.317h.54c1.022 0 1.533 0 1.85-.318.317-.317.317-.828.317-1.849v-3.792c0-1.794.573-3.25 2.262-3.25.845 0 1.53.728 1.53 1.625v4.875c0 1.022 0 1.532.317 1.85.318.317.828.317 1.85.317h.54c1.021 0 1.532 0 1.85-.317.316-.317.317-.828.317-1.849l.001-5.959c0-2.692-2.56-4.875-5.095-4.875-1.443 0-2.73.708-3.571 1.813 0-.682 0-1.023-.149-1.277a1.1 1.1 0 0 0-.388-.388c-.253-.148-.594-.148-1.277-.148"/></svg>