<svg xmlns="http://www.w3.org/2000/svg" width="24" height="24" fill="none"><path fill="#AEAEAE" d="M12 3.5c1.81 0 3.545.179 5.153.507 2.01.41 3.013.614 3.93 1.793S22 8.33 22 11.036v1.928c0 2.705 0 4.058-.917 5.236-.917 1.179-1.92 1.384-3.93 1.793A26 26 0 0 1 12 20.5c-1.81 0-3.545-.179-5.153-.507-2.01-.41-3.013-.614-3.93-1.793S2 15.67 2 12.964v-1.928c0-2.705 0-4.058.917-5.236.917-1.179 1.92-1.384 3.93-1.793A26 26 0 0 1 12 3.5m1.445 6.275c-1.717-.946-2.577-1.42-3.272-1.237a1.7 1.7 0 0 0-.635.318C9 9.291 9 10.194 9 12s0 2.709.538 3.144c.182.147.4.255.635.317.695.182 1.555-.291 3.272-1.237 1.58-.87 2.368-1.306 2.517-1.912.05-.206.05-.42 0-.625-.149-.606-.938-1.042-2.517-1.912"/></svg>